<?xml version="1.0" standalone="no"?>
<!DOCTYPE svg PUBLIC "-//W3C//DTD SVG 20010904//EN"
 "http://www.w3.org/TR/2001/REC-SVG-20010904/DTD/svg10.dtd">
<svg version="1.0" xmlns="http://www.w3.org/2000/svg"
 viewBox="0 0 2600.000000 2600.000000"
 preserveAspectRatio="xMidYMid meet">
<metadata>
Created by potrace 1.15, written by Peter Selinger 2001-2017
</metadata>
<g transform="translate(0.000000,2600.000000) scale(0.100000,-0.100000)"
fill="#000000" stroke="none">
<path d="M20440 20445 c-147 -20 -361 -68 -547 -121 -302 -86 -679 -206 -863
-274 -546 -202 -673 -250 -754 -288 -365 -171 -624 -506 -761 -983 -64 -220
-93 -417 -102 -687 l-6 -192 -96 -30 c-53 -16 -703 -216 -1445 -445 -742 -228
-1359 -418 -1371 -421 -16 -4 -23 2 -33 28 -17 47 -136 260 -195 348 -269 403
-587 632 -979 707 -74 14 -146 18 -353 18 -228 0 -276 -3 -390 -23 -357 -64
-1021 -266 -1579 -481 -458 -177 -583 -238 -753 -370 -240 -185 -383 -434
-467 -814 -95 -427 -103 -1030 -20 -1517 99 -581 344 -1213 650 -1677 112
-170 222 -304 373 -453 211 -210 432 -365 672 -471 217 -96 364 -129 572 -129
304 0 571 68 1244 318 150 56 339 122 420 147 279 85 470 172 677 309 313 205
510 428 601 679 105 292 125 663 75 1385 -4 64 -6 119 -5 121 10 9 2929 840
2936 835 5 -3 25 -36 44 -74 134 -266 337 -549 544 -759 189 -191 376 -327
611 -445 253 -125 411 -166 651 -166 306 0 550 62 1211 306 169 62 383 137
475 165 201 62 278 91 420 163 361 182 686 473 863 775 154 263 222 831 165
1376 -24 221 -96 580 -175 867 -228 831 -540 1463 -904 1832 -239 241 -481
377 -771 433 -115 22 -497 27 -635 8z"/>
<path d="M6215 14130 c-392 -61 -752 -331 -1147 -861 -475 -636 -756 -1360
-854 -2199 -24 -200 -23 -560 0 -735 53 -394 177 -737 375 -1032 159 -237 365
-398 674 -528 176 -73 402 -141 787 -236 201 -50 438 -113 527 -140 328 -99
478 -123 778 -122 166 0 234 5 325 21 314 56 497 156 726 395 166 173 303 372
594 858 52 87 98 155 104 153 6 -2 657 -215 1446 -474 789 -259 1438 -474
1441 -478 4 -4 3 -34 -1 -66 -33 -232 -35 -556 -4 -792 77 -603 347 -1124 709
-1370 257 -174 494 -262 1144 -425 218 -54 455 -117 526 -139 286 -90 471
-120 743 -120 299 1 540 45 790 145 259 105 575 426 855 870 201 319 443 912
591 1445 248 898 246 1571 -5 2062 -170 329 -519 606 -1014 801 -228 90 -797
269 -1080 341 -403 102 -772 188 -865 202 -333 51 -702 -52 -1032 -289 -229
-164 -472 -421 -651 -687 -27 -41 -51 -76 -52 -78 -4 -4 -2918 889 -2927 897
-4 4 -1 56 7 116 63 466 -2 889 -181 1188 -176 292 -519 555 -954 730 -214 87
-773 265 -1080 346 -221 58 -606 146 -767 177 -153 28 -420 41 -528 24z"/>
</g>
</svg>
